<?xml version="1.0" standalone="no"?>
<!DOCTYPE svg PUBLIC "-//W3C//DTD SVG 20010904//EN"
 "http://www.w3.org/TR/2001/REC-SVG-20010904/DTD/svg10.dtd">
<svg version="1.0" xmlns="http://www.w3.org/2000/svg"
 width="356.000000pt" height="356.000000pt" viewBox="0 0 356.000000 356.000000"
 preserveAspectRatio="xMidYMid meet">
<metadata>
Created by potrace 1.15, written by Peter Selinger 2001-2017
</metadata>
<g transform="translate(0.000000,356.000000) scale(0.100000,-0.100000)"
fill="#000000" stroke="none">
<path d="M1761 3038 c-41 -107 -202 -493 -246 -590 -30 -67 -55 -127 -55 -133
0 -6 31 -42 70 -80 38 -38 68 -71 65 -73 -4 -5 -121 74 -130 88 -3 5 -12 10
-20 10 -7 0 -78 -126 -163 -292 -164 -321 -330 -631 -603 -1126 -99 -178 -179
-330 -179 -338 0 -25 27 -15 152 55 322 180 628 309 831 351 53 11 58 14 52
33 -17 58 -17 225 -1 300 33 147 121 270 214 298 118 35 255 -109 298 -314 11
-49 15 -110 12 -191 l-3 -119 60 -14 c203 -46 486 -167 803 -344 126 -71 152
-80 152 -54 0 8 -49 104 -108 214 -117 216 -111 209 -286 339 -76 58 -71 68
11 22 56 -32 83 -38 83 -17 0 6 -72 147 -160 312 -179 334 -470 909 -550 1085
-29 63 -99 223 -156 355 -103 241 -124 273 -143 223z"/>
</g>
</svg>
